<?xml version="1.0" encoding="UTF-8" standalone="no"?>
<svg
   xmlns:dc="http://purl.org/dc/elements/1.1/"
   xmlns:cc="http://creativecommons.org/ns#"
   xmlns:rdf="http://www.w3.org/1999/02/22-rdf-syntax-ns#"
   xmlns:svg="http://www.w3.org/2000/svg"
   xmlns="http://www.w3.org/2000/svg"
   viewBox="0 0 208 77.333336"
   height="77.333336"
   width="208"
   xml:space="preserve"
   id="svg2"
   version="1.1"><metadata
     id="metadata8"><rdf:RDF><cc:Work
         rdf:about=""><dc:format>image/svg+xml</dc:format><dc:type
           rdf:resource="http://purl.org/dc/dcmitype/StillImage" /></cc:Work></rdf:RDF></metadata><defs
     id="defs6" /><g
     transform="matrix(1.3333333,0,0,-1.3333333,0,77.333333)"
     id="g10"><g
       transform="scale(0.1)"
       id="g12"><path
         id="path14"
         style="fill:#ffffff;fill-opacity:1;fill-rule:evenodd;stroke:none"
         d="m 1242.05,290.016 c -6.98,1.172 -63.33,6.718 -99.42,4.804 -20.08,-1.066 -105.29,-10.582 -142.13,-17.847 -32.297,-6.387 -77.461,-16.426 -126.855,-17.11 -61.094,-0.859 -89.922,12.325 -106.04,18.946 -16.089,6.64 -29.121,18.629 -34.453,24.703 -4.781,5.488 -5.093,14.648 -5.093,14.648 0,0 52.996,56.61 78.437,106.211 21.758,42.383 28.199,73.496 30.106,88.359 1.933,14.852 -1.868,27.129 -9.551,32.997 -7.754,5.859 -19.715,7.382 -30.887,1.171 -15.449,-8.535 -29.57,-25.632 -40.871,-41.57 -11.262,-15.949 -26.922,-39.023 -38.328,-78.105 -12.422,-42.715 -14.453,-60.891 -14.785,-70.703 -0.356,-9.786 0.859,-26.836 0.859,-26.836 0,0 -12.609,-17.012 -26.621,-30.528 -14.004,-13.492 -29.668,-25.718 -48.75,-22.515 -14.707,2.48 -16.098,19.449 -16.273,28.343 -0.157,8.868 3.976,20.383 5.253,30.149 1.301,9.726 2.114,6.922 -1.941,10.781 -4.07,3.887 -9.719,2.227 -17.676,2.031 -7.937,-0.195 -6.23,-4.914 -10.715,-12.695 -4.453,-7.773 -15.23,-30.363 -28.23,-42.051 -13.008,-11.676 -18.391,-11.402 -28.621,-10.094 -10.227,1.29 -16.152,6.149 -20.488,15.172 -4.356,9.024 -2.766,41.621 -3.364,50.528 -0.64,8.886 -4.898,15.281 -12.422,19.09 -9.082,4.64 -19.019,2.218 -27.578,-4.832 -8.855,-7.258 -23.992,-28.372 -30.406,-38.868 -6.43,-10.527 -19.809,-25.507 -23.32,-25.382 -4.18,0.148 -3.789,7.199 -2.356,19.269 0.949,7.988 1.864,18.594 2.157,27.949 0.343,9.297 -4.668,13.211 -13.922,15.399 -9.243,2.179 -17.075,-2.762 -22.766,-10.867 -6.57,-9.336 -19.27,-24.961 -32.449,-41.758 -13.203,-16.797 -34.223,-36.617 -42.129,-35.895 -7.934,0.762 -11.457,6.445 -14.399,15.899 -2.925,9.437 1.606,45.668 3.008,59.156 1.407,13.496 10.449,72.43 17.141,103.476 6.687,31.024 9.18,35.614 15.105,58.282 5.911,22.656 7.661,18.769 5.688,29.57 -1.945,10.801 -7.539,10.613 -13.574,12.227 -5.996,1.609 -8.696,1.718 -14.375,-0.879 -5.703,-2.618 -10.051,-4.875 -13.813,-19.2 -3.765,-14.347 -11.656,-38.945 -34.351,-87.168 -22.688,-48.222 -48.848,-90.214 -76.567,-133.007 -23.887,-36.891 -35.801,-40.309 -44.004,-38.473 -6.836,1.543 -7.5,11.074 -7.676,19.469 -0.195,8.418 2.278,20.32 6.528,35.105 4.258,14.778 15.445,43.899 25.613,68.262 10.203,24.387 31.082,67.16 48.086,104.844 18.606,41.25 21.941,59.445 23.809,65.285 2.414,7.566 -4.981,10.633 -10.965,13.172 -5.981,2.55 -15.61,-0.301 -15.61,-0.301 -6.355,-2.07 -11.14,-3.555 -16.492,-9.445 -5.351,-5.887 -20.886,-16.571 -28.105,-18.739 -5.266,-1.601 -5.574,-4.394 -2.625,-9.492 0,0 1.426,-5.723 7.996,-5 6.555,0.703 5.078,1.582 12.109,2.735 7.024,1.152 7.735,-6.895 3.074,-19.805 -4.668,-12.891 -23.164,-58.965 -35.464,-91.68 C 128.191,394.508 96.2383,319.977 93.0664,284.766 90.4805,256.504 88.293,238.164 105.867,222.559 c 23.344,-20.743 74.453,21.425 92.426,56.152 11.934,22.984 56.094,105.934 64.156,123.375 8.071,17.449 23.149,49.141 20.512,41.277 -2.578,-7.84 -17.285,-70.32 -23.906,-126.101 -6.633,-55.758 12.605,-60.973 25.918,-67.047 13.32,-6.055 30.679,4.883 39.746,11.582 9.136,6.66 42.949,50.66 45.933,56.637 3.012,5.945 10.317,5.937 10.18,2.664 -0.09,-3.27 0.039,-29.071 4.781,-40.434 4.746,-11.367 9.192,-17.129 22.563,-22.266 13.32,-5.117 21.012,3.594 36.48,25.157 15.918,22.144 23.989,42.847 27.629,47.281 5.028,6.074 4.817,-3.359 5.645,-12.336 0.925,-9.91 1.406,-26.648 13.508,-41.078 12.085,-14.414 20.386,-21.699 44.746,-18.789 24.375,2.871 47.773,35.621 47.773,35.621 0,0 2.051,-22.008 17.832,-37.008 15.816,-15.039 23.609,-14.551 47.52,-11.641 23.914,2.872 63.211,54.43 63.211,54.43 0,0 17.902,-23.883 39.472,-35.933 26.946,-15.059 79.082,-25.235 123.86,-25.86 44.793,-0.625 117.449,12.5 174.718,26.66 50.48,12.5 110.52,19.18 132.91,19.786 22.45,0.625 51.84,-4.844 54.25,-2.598 2.41,2.246 11.29,6.738 4.32,7.926 z M 757.273,463.473 c 22.793,38.867 43.227,57.558 49.79,54.922 6.542,-2.637 6.5,-4.434 1.753,-18.75 -4.707,-14.278 -14.324,-47.676 -39.668,-83.555 -25.386,-35.879 -44.878,-60.5 -44.878,-60.5 0,0 3.875,58.234 33.003,107.883 v 0" /><path
         id="path16"
         style="fill:#ffffff;fill-opacity:1;fill-rule:evenodd;stroke:none"
         d="m 597.488,411.891 c 0.039,0.547 -0.879,1.914 1.875,1.629 2.739,-0.282 5.157,-1.219 5.45,-1.329 0.277,-0.105 1.964,-0.164 1.964,-0.164 0,0 1.594,7.051 2.286,7.782 0.671,0.722 2.089,0.976 2.8,2.363 0.715,1.398 1.914,3.43 4.426,4.484 2.488,1.055 2.41,1.16 4.973,1.055 2.539,-0.078 5.758,0.078 7.633,-0.637 1.898,-0.73 2.421,-0.945 3.703,-2.402 1.281,-1.473 2.863,-2.371 2.785,-4.168 -0.051,-1.797 0,-2.277 -0.215,-3.691 -0.234,-1.399 -1.047,-2.129 -0.219,-3.411 0.805,-1.238 1.156,-2.019 0.942,-3.523 -0.286,-1.504 0.418,-3.606 -1.016,-4.219 -1.445,-0.625 -5.98,-3.105 -7.895,-3.515 -1.89,-0.411 -8.496,-2.454 -10.23,-2.481 -1.684,-0.019 -7.187,-0.129 -8.984,0.027 -1.782,0.157 -5.911,0.696 -6.614,2.129 -0.73,1.457 -1.379,2.043 -1.902,3.762 -0.488,1.707 -1.762,6.309 -1.762,6.309 v 0" /><path
         id="path18"
         style="fill:#ffffff;fill-opacity:1;fill-rule:nonzero;stroke:none"
         d="M 0,143.184 H 15.1289 V 99.707 c 0,-12.8515 4.0899,-21.25 15.625,-21.25 11.5703,0 15.6524,8.3985 15.6524,21.25 v 43.477 h 15.125 V 95.0781 C 61.5313,74.8828 50.1055,66.582 30.7539,66.582 11.4375,66.582 0,74.8828 0,95.0781 v 48.1059 0" /><path
         id="path20"
         style="fill:#ffffff;fill-opacity:1;fill-rule:nonzero;stroke:none"
         d="m 83.6328,143.184 h 18.5622 l 28.723,-56.3285 h 0.227 v 56.3285 h 14.468 V 67.8711 H 127.117 L 98.3125,124.199 H 98.1133 V 67.8711 H 83.6328 v 75.3129 0" /><path
         id="path22"
         style="fill:#ffffff;fill-opacity:1;fill-rule:nonzero;stroke:none"
         d="m 166.953,143.184 h 15.11 V 67.8711 h -15.11 v 75.3129 0" /><path
         id="path24"
         style="fill:#ffffff;fill-opacity:1;fill-rule:nonzero;stroke:none"
         d="m 204.172,143.184 h 15.113 V 79.7266 h 29.262 V 67.8711 h -44.375 v 75.3129 0" /><path
         id="path26"
         style="fill:#ffffff;fill-opacity:1;fill-rule:nonzero;stroke:none"
         d="M 307.043,148.828 V 40.8789 h -7.48 V 148.828 h 7.48 v 0" /><path
         id="path28"
         style="fill:#ffffff;fill-opacity:1;fill-rule:nonzero;stroke:none"
         d="m 420.449,94.1992 c 0,-22.2265 -16.277,-27.6172 -27.312,-27.6172 -10.996,0 -27.278,5.3907 -27.278,27.6172 v 48.9848 h 7.411 V 94.1992 c 0,-12.2851 6.835,-21.1523 19.867,-21.1523 13.074,0 19.863,8.8672 19.863,21.1523 v 48.9848 h 7.449 v -48.9848 0" /><path
         id="path30"
         style="fill:#ffffff;fill-opacity:1;fill-rule:nonzero;stroke:none"
         d="m 443.547,109.961 c 0,4.219 0,8.535 -0.449,12.93 h 6.597 v -9.786 h 0.219 c 2.266,4.942 6.395,11.094 17.832,11.094 13.555,0 18.75,-9.062 18.75,-21.133 V 67.8711 h -6.808 v 33.4379 c 0,10.39 -3.641,17.07 -13.055,17.07 -12.403,0 -16.274,-10.899 -16.274,-20.0782 V 67.8711 h -6.812 v 42.0899 0" /><path
         id="path32"
         style="fill:#ffffff;fill-opacity:1;fill-rule:nonzero;stroke:none"
         d="m 516.301,137.617 h -6.821 v 9.024 h 6.821 v -9.024 m -6.821,-14.726 h 6.821 V 67.8711 h -6.821 v 55.0199 0" /><path
         id="path34"
         style="fill:#ffffff;fill-opacity:1;fill-rule:nonzero;stroke:none"
         d="m 558.508,67.8711 h -7.988 l -18.672,55.0199 h 7.441 l 15.215,-47.559 h 0.191 l 15.996,47.559 h 7.09 L 558.508,67.8711 v 0" /><path
         id="path36"
         style="fill:#ffffff;fill-opacity:1;fill-rule:nonzero;stroke:none"
         d="m 630.145,69.5898 c -4.754,-1.9335 -10.907,-3.0078 -15.985,-3.0078 -18.215,0 -25.039,12.2852 -25.039,28.7891 0,16.8559 9.297,28.8279 23.192,28.8279 15.57,0 21.917,-12.5 21.917,-27.2849 V 93.457 h -37.675 c 0,-11.6601 6.289,-21.0547 18.164,-21.0547 4.937,0 12.183,2.0704 15.426,4.1016 v -6.9141 m -3.336,29.668 c 0,9.6292 -3.911,19.1212 -14.036,19.1212 -10.058,0 -16.218,-10.039 -16.218,-19.1212 h 30.254 v 0" /><path
         id="path38"
         style="fill:#ffffff;fill-opacity:1;fill-rule:nonzero;stroke:none"
         d="m 653.113,110.625 c 0,6.016 0,8.301 -0.425,12.266 h 6.824 v -10.567 h 0.183 c 2.485,6.172 7.153,11.875 14.121,11.875 1.645,0 3.579,-0.312 4.77,-0.644 v -7.129 c -1.391,0.469 -3.227,0.664 -4.961,0.664 -10.793,0 -13.711,-12.11 -13.711,-22.0119 v -27.207 h -6.801 v 42.7539 0" /><path
         id="path40"
         style="fill:#ffffff;fill-opacity:1;fill-rule:nonzero;stroke:none"
         d="m 690.793,75.8594 c 4.07,-2.0313 9.082,-3.4571 14.336,-3.4571 6.465,0 12.207,3.5743 12.207,9.8243 0,13.0468 -26.445,11.0351 -26.445,26.9724 0,10.899 8.875,15 17.91,15 2.929,0 8.75,-0.644 13.594,-2.461 l -0.657,-5.937 c -3.515,1.601 -8.406,2.578 -12.175,2.578 -7.012,0 -11.875,-2.168 -11.875,-9.18 0,-10.2342 27.109,-8.945 27.109,-26.9724 0,-11.6407 -10.942,-15.6446 -19.238,-15.6446 -5.278,0 -10.571,0.625 -15.414,2.5977 l 0.648,6.6797 v 0" /><path
         id="path42"
         style="fill:#ffffff;fill-opacity:1;fill-rule:nonzero;stroke:none"
         d="m 749.734,137.617 h -6.812 v 9.024 h 6.812 v -9.024 m -6.812,-14.726 h 6.812 V 67.8711 h -6.812 v 55.0199 0" /><path
         id="path44"
         style="fill:#ffffff;fill-opacity:1;fill-rule:nonzero;stroke:none"
         d="M 796.555,117.09 H 784.031 V 81.4844 c 0,-4.9805 1.821,-9.0821 7.348,-9.0821 2.586,0 4.297,0.5665 6.266,1.3086 l 0.429,-5.6054 c -1.629,-0.6836 -4.988,-1.5235 -8.328,-1.5235 -12.09,0 -12.527,8.3008 -12.527,18.3594 V 117.09 h -10.781 v 5.801 h 10.781 v 13.3 l 6.812,2.364 v -15.664 h 12.524 v -5.801 0" /><path
         id="path46"
         style="fill:#ffffff;fill-opacity:1;fill-rule:nonzero;stroke:none"
         d="m 851.57,69.5898 c -4.722,-1.9335 -10.906,-3.0078 -15.957,-3.0078 -18.238,0 -25.054,12.2852 -25.054,28.7891 0,16.8559 9.296,28.8279 23.218,28.8279 15.532,0 21.887,-12.5 21.887,-27.2849 V 93.457 H 818.02 c 0,-11.6601 6.277,-21.0547 18.144,-21.0547 4.949,0 12.156,2.0704 15.406,4.1016 v -6.9141 m -3.34,29.668 c 0,9.6292 -3.906,19.1212 -14.042,19.1212 -10.016,0 -16.168,-10.039 -16.168,-19.1212 h 30.21 M 836.902,144.16 h 8.52 l -13.574,-15.527 h -4.985 l 10.039,15.527 v 0" /><path
         id="path48"
         style="fill:#ffffff;fill-opacity:1;fill-rule:nonzero;stroke:none"
         d="m 954.102,67.8711 h -6.805 v 8.7695 h -0.207 c -3.672,-7.0508 -9.285,-10.0586 -17.176,-10.0586 -15.101,0 -22.641,12.5 -22.641,28.7891 0,16.7379 6.489,28.8279 22.641,28.8279 10.816,0 16.219,-7.871 17.176,-10.586 h 0.207 v 35.215 h 6.805 V 67.8711 m -23.086,4.5312 c 12.082,0 16.281,12.9493 16.281,22.9688 0,10.0589 -4.199,23.0079 -16.281,23.0079 -12.977,0 -16.297,-12.324 -16.297,-23.0079 0,-10.6641 3.32,-22.9688 16.297,-22.9688 v 0" /><path
         id="path50"
         style="fill:#ffffff;fill-opacity:1;fill-rule:nonzero;stroke:none"
         d="m 1013.37,69.5898 c -4.76,-1.9335 -10.91,-3.0078 -16.007,-3.0078 -18.215,0 -25.027,12.2852 -25.027,28.7891 0,16.8559 9.305,28.8279 23.203,28.8279 15.551,0 21.891,-12.5 21.891,-27.2849 V 93.457 h -37.657 c 0,-11.6601 6.29,-21.0547 18.165,-21.0547 4.922,0 12.192,2.0704 15.432,4.1016 v -6.9141 m -3.38,29.668 c 0,9.6292 -3.85,19.1212 -14.006,19.1212 -10.039,0 -16.211,-10.039 -16.211,-19.1212 h 30.217 v 0" /><path
         id="path52"
         style="fill:#ffffff;fill-opacity:1;fill-rule:nonzero;stroke:none"
         d="m 1072.38,143.184 h 7.48 V 74.3555 h 30.21 v -6.4844 h -37.69 v 75.3129 0" /><path
         id="path54"
         style="fill:#ffffff;fill-opacity:1;fill-rule:nonzero;stroke:none"
         d="m 1157.75,76.7188 h -0.25 c -3,-6.5821 -10.65,-10.1368 -17.45,-10.1368 -15.65,0 -18.12,10.586 -18.12,15.5274 0,18.4766 19.62,19.3356 33.86,19.3356 h 1.31 v 2.813 c 0,9.355 -3.36,14.121 -12.48,14.121 -5.75,0 -11.14,-1.289 -16.23,-4.531 v 6.562 c 4.18,2.07 11.33,3.789 16.23,3.789 13.56,0 19.27,-6.152 19.27,-20.488 V 79.4141 c 0,-4.4141 0,-7.7539 0.54,-11.543 h -6.68 v 8.8477 m -0.65,18.8867 h -1.93 c -11.78,0 -25.81,-1.1914 -25.81,-13.2617 0,-7.2657 5.19,-9.9415 11.46,-9.9415 15.95,0 16.28,13.9258 16.28,19.8633 v 3.3399 0" /><path
         id="path56"
         style="fill:#ffffff;fill-opacity:1;fill-rule:nonzero;stroke:none"
         d="m 1228.96,80.8203 c 0,-4.1797 0,-8.5547 0.47,-12.9492 h -6.63 v 9.8242 h -0.18 c -2.32,-4.9609 -6.38,-11.1133 -17.78,-11.1133 -13.62,0 -18.82,9.0625 -18.82,21.1328 v 35.1762 h 6.8 V 89.4727 c 0,-10.3907 3.68,-17.0704 13.07,-17.0704 12.38,0 16.28,10.918 16.28,20.0782 v 30.4105 h 6.79 v -42.0707 0" /><path
         id="path58"
         style="fill:#ffffff;fill-opacity:1;fill-rule:nonzero;stroke:none"
         d="m 1247.75,75.8594 c 4.1,-2.0313 9.06,-3.4571 14.35,-3.4571 6.49,0 12.2,3.5743 12.2,9.8243 0,13.0468 -26.44,11.0351 -26.44,26.9724 0,10.899 8.85,15 17.9,15 2.9,0 8.76,-0.644 13.6,-2.461 l -0.65,-5.937 c -3.54,1.601 -8.43,2.578 -12.18,2.578 -7,0 -11.87,-2.168 -11.87,-9.18 0,-10.2342 27.09,-8.945 27.09,-26.9724 0,-11.6407 -10.89,-15.6446 -19.21,-15.6446 -5.27,0 -10.57,0.625 -15.42,2.5977 l 0.63,6.6797 v 0" /><path
         id="path60"
         style="fill:#ffffff;fill-opacity:1;fill-rule:nonzero;stroke:none"
         d="m 1331.5,76.7188 h -0.22 c -3.02,-6.5821 -10.67,-10.1368 -17.46,-10.1368 -15.68,0 -18.14,10.586 -18.14,15.5274 0,18.4766 19.62,19.3356 33.86,19.3356 h 1.31 v 2.813 c 0,9.355 -3.36,14.121 -12.56,14.121 -5.67,0 -11.1,-1.289 -16.15,-4.531 v 6.562 c 4.2,2.07 11.33,3.789 16.15,3.789 13.64,0 19.35,-6.152 19.35,-20.488 V 79.4141 c 0,-4.4141 0,-7.7539 0.54,-11.543 h -6.68 v 8.8477 m -0.65,18.8867 h -1.94 c -11.77,0 -25.84,-1.1914 -25.84,-13.2617 0,-7.2657 5.22,-9.9415 11.5,-9.9415 15.95,0 16.28,13.9258 16.28,19.8633 v 3.3399 0" /><path
         id="path62"
         style="fill:#ffffff;fill-opacity:1;fill-rule:nonzero;stroke:none"
         d="m 1359.77,109.961 c 0,4.219 0,8.535 -0.45,12.93 h 6.61 v -9.786 h 0.2 c 2.28,4.942 6.4,11.094 17.81,11.094 13.61,0 18.79,-9.062 18.79,-21.133 V 67.8711 h -6.78 v 33.4379 c 0,10.39 -3.69,17.07 -13.09,17.07 -12.38,0 -16.31,-10.899 -16.31,-20.0782 V 67.8711 h -6.78 v 42.0899 0" /><path
         id="path64"
         style="fill:#ffffff;fill-opacity:1;fill-rule:nonzero;stroke:none"
         d="m 1425.69,109.961 c 0,4.219 0,8.535 -0.42,12.93 h 6.61 v -9.786 h 0.2 c 2.26,4.942 6.35,11.094 17.8,11.094 13.6,0 18.77,-9.062 18.77,-21.133 V 67.8711 h -6.8 v 33.4379 c 0,10.39 -3.67,17.07 -13.03,17.07 -12.44,0 -16.31,-10.899 -16.31,-20.0782 V 67.8711 h -6.82 v 42.0899 0" /><path
         id="path66"
         style="fill:#ffffff;fill-opacity:1;fill-rule:nonzero;stroke:none"
         d="m 1528.55,69.5898 c -4.73,-1.9335 -10.92,-3.0078 -15.94,-3.0078 -18.29,0 -25.04,12.2852 -25.04,28.7891 0,16.8559 9.25,28.8279 23.16,28.8279 15.54,0 21.94,-12.5 21.94,-27.2849 V 93.457 h -37.68 c 0,-11.6601 6.27,-21.0547 18.14,-21.0547 4.97,0 12.2,2.0704 15.42,4.1016 v -6.9141 m -3.32,29.668 c 0,9.6292 -3.91,19.1212 -14.06,19.1212 -10.03,0 -16.18,-10.039 -16.18,-19.1212 h 30.24 v 0" /></g></g></svg>