<svg xmlns="http://www.w3.org/2000/svg" xmlns:xlink="http://www.w3.org/1999/xlink" viewBox="2193 803 654 298">
  <defs>
    <style>
      .cls-1 {
        clip-path: url(#clip-logo-bleu);
      }

      .cls-2 {
        fill: #3c8bc7;
        stroke: rgba(0,0,0,0);
      }

      .cls-3 {
        fill: rgba(48,48,48,0);
      }
    </style>
    <clipPath id="clip-logo-bleu">
      <rect x="2193" y="803" width="654" height="298"/>
    </clipPath>
  </defs>
  <g id="logo-bleu" class="cls-1">
    <rect class="cls-3" x="2193" y="803" width="654" height="298"/>
    <path id="Tracé_9" data-name="Tracé 9" class="cls-2" d="M193.095-18.9H167.58V-44.1q-28.035,30.87-64.733,30.87T40.32-40.005Q14.49-66.78,14.49-104.265t26.145-64.1q26.145-26.617,63.788-26.617T167.58-164.43v-90.72h25.515ZM104.9-37.485q24.885,0,44.415-18.585t19.53-47.092q0-28.507-18.113-47.565t-45.675-19.057q-27.562,0-45.99,19.687T40.635-103.792q0,26.617,18.9,46.462T104.9-37.485ZM247.275-255.15a19.481,19.481,0,0,1,14.332,5.827,19.294,19.294,0,0,1,5.828,14.175,19.294,19.294,0,0,1-5.828,14.175,19.294,19.294,0,0,1-14.175,5.827,19.04,19.04,0,0,1-14.175-5.985,19.453,19.453,0,0,1-5.827-14.018,19.453,19.453,0,0,1,5.827-14.018A18.863,18.863,0,0,1,247.275-255.15ZM260.505-18.9H234.36V-190.575h26.145Zm62.685,0H297.36V-255.15h25.83Zm66.465-145.53q25.515-30.555,63-30.555t63.63,26.617q26.145,26.618,26.145,64.1T516.6-40.005Q490.77-13.23,454.23-13.23T389.655-44.1V41.9h-25.83v-232.47h25.83Zm63,126.945q25.83,0,44.887-19.373T516.6-103.635q0-27.405-18.742-46.777t-45.832-19.372q-27.09,0-45.517,19.057T388.08-103.635q0,28.035,18.9,47.093T452.655-37.485ZM667.8-170.415,651.1-153.09q-18.585-17.325-34.02-17.325a23.161,23.161,0,0,0-16.38,6.143,19.823,19.823,0,0,0-6.615,15.12q0,8.978,7.4,15.75t26.3,16.695q18.9,9.922,29.138,21.892T667.17-65.52q0,22.05-15.278,37.17T614.25-13.23q-31.185,0-51.975-26.46l16.38-18.27q17.01,19.845,34.65,19.845A29.071,29.071,0,0,0,633.78-45.99q8.5-7.875,8.505-18.428a22.97,22.97,0,0,0-7.717-17.64q-7.718-7.087-26.46-16.537t-28.35-20.948q-9.608-11.5-9.608-30.24a42.817,42.817,0,0,1,13.7-31.973q13.7-13.23,36.225-13.23T667.8-170.415Z" transform="translate(2178 1058)"/>
  </g>
</svg>
